<mxfile host="app.diagrams.net" agent="Mozilla/5.0 (Macintosh; Intel Mac OS X 10_15_7) AppleWebKit/537.36 (KHTML, like Gecko) Chrome/138.0.0.0 YaBrowser/25.8.0.0 Safari/537.36" version="28.2.3">
  <diagram name="Страница — 1" id="Ipv9d9LjuOsUxJTzo1yt">
    <mxGraphModel grid="1" page="1" gridSize="10" guides="1" tooltips="1" connect="1" arrows="1" fold="1" pageScale="1" pageWidth="827" pageHeight="1169" math="0" shadow="0">
      <root>
        <mxCell id="0" />
        <mxCell id="1" parent="0" />
        <mxCell id="tL8ljKS5sOrN-HYQxTDB-18" style="edgeStyle=orthogonalEdgeStyle;rounded=0;orthogonalLoop=1;jettySize=auto;html=1;entryX=0.5;entryY=0;entryDx=0;entryDy=0;" edge="1" parent="1" source="2fkLR0gqcW9nhAtpeb0_-1" target="2fkLR0gqcW9nhAtpeb0_-2">
          <mxGeometry relative="1" as="geometry" />
        </mxCell>
        <mxCell id="2fkLR0gqcW9nhAtpeb0_-1" value="Clickhouse" style="shape=cylinder3;whiteSpace=wrap;html=1;boundedLbl=1;backgroundOutline=1;size=15;" vertex="1" parent="1">
          <mxGeometry x="160" y="410" width="120" height="150" as="geometry" />
        </mxCell>
        <mxCell id="2fkLR0gqcW9nhAtpeb0_-2" value="Superset" style="rounded=1;whiteSpace=wrap;html=1;" vertex="1" parent="1">
          <mxGeometry x="150" y="600" width="140" height="70" as="geometry" />
        </mxCell>
        <mxCell id="tL8ljKS5sOrN-HYQxTDB-4" style="edgeStyle=orthogonalEdgeStyle;rounded=0;orthogonalLoop=1;jettySize=auto;html=1;entryX=0.5;entryY=0;entryDx=0;entryDy=0;exitX=0.5;exitY=1;exitDx=0;exitDy=0;" edge="1" parent="1" source="tL8ljKS5sOrN-HYQxTDB-1" target="tL8ljKS5sOrN-HYQxTDB-2">
          <mxGeometry relative="1" as="geometry" />
        </mxCell>
        <mxCell id="tL8ljKS5sOrN-HYQxTDB-5" style="edgeStyle=orthogonalEdgeStyle;rounded=0;orthogonalLoop=1;jettySize=auto;html=1;entryX=0.5;entryY=0;entryDx=0;entryDy=0;" edge="1" parent="1" source="tL8ljKS5sOrN-HYQxTDB-1" target="tL8ljKS5sOrN-HYQxTDB-3">
          <mxGeometry relative="1" as="geometry" />
        </mxCell>
        <mxCell id="tL8ljKS5sOrN-HYQxTDB-7" style="edgeStyle=orthogonalEdgeStyle;rounded=0;orthogonalLoop=1;jettySize=auto;html=1;entryX=0.5;entryY=0;entryDx=0;entryDy=0;exitX=0.5;exitY=1;exitDx=0;exitDy=0;" edge="1" parent="1" source="tL8ljKS5sOrN-HYQxTDB-1" target="tL8ljKS5sOrN-HYQxTDB-6">
          <mxGeometry relative="1" as="geometry" />
        </mxCell>
        <mxCell id="tL8ljKS5sOrN-HYQxTDB-1" value="Текст&amp;nbsp;&lt;div&gt;отзыва&lt;/div&gt;" style="ellipse;whiteSpace=wrap;html=1;aspect=fixed;" vertex="1" parent="1">
          <mxGeometry x="90" y="30" width="100" height="100" as="geometry" />
        </mxCell>
        <mxCell id="tL8ljKS5sOrN-HYQxTDB-23" style="edgeStyle=orthogonalEdgeStyle;rounded=0;orthogonalLoop=1;jettySize=auto;html=1;entryX=0.5;entryY=0;entryDx=0;entryDy=0;" edge="1" parent="1" source="tL8ljKS5sOrN-HYQxTDB-2" target="tL8ljKS5sOrN-HYQxTDB-19">
          <mxGeometry relative="1" as="geometry" />
        </mxCell>
        <mxCell id="tL8ljKS5sOrN-HYQxTDB-2" value="Классификация&lt;div&gt;темы отзыва&lt;/div&gt;" style="ellipse;whiteSpace=wrap;html=1;aspect=fixed;" vertex="1" parent="1">
          <mxGeometry x="-80" y="190" width="110" height="110" as="geometry" />
        </mxCell>
        <mxCell id="tL8ljKS5sOrN-HYQxTDB-3" value="Классификация&lt;div&gt;тональности&lt;/div&gt;&lt;div&gt;отзыва&lt;/div&gt;" style="ellipse;whiteSpace=wrap;html=1;aspect=fixed;" vertex="1" parent="1">
          <mxGeometry x="85" y="190" width="110" height="110" as="geometry" />
        </mxCell>
        <mxCell id="tL8ljKS5sOrN-HYQxTDB-6" value="Поиск&amp;nbsp;&lt;div&gt;упоминания&lt;/div&gt;&lt;div&gt;конкурентов&lt;/div&gt;" style="ellipse;whiteSpace=wrap;html=1;aspect=fixed;" vertex="1" parent="1">
          <mxGeometry x="250" y="190" width="110" height="110" as="geometry" />
        </mxCell>
        <mxCell id="tL8ljKS5sOrN-HYQxTDB-19" value="WebService" style="rounded=1;whiteSpace=wrap;html=1;" vertex="1" parent="1">
          <mxGeometry x="-102.5" y="410" width="155" height="90" as="geometry" />
        </mxCell>
        <mxCell id="tL8ljKS5sOrN-HYQxTDB-24" style="edgeStyle=orthogonalEdgeStyle;rounded=0;orthogonalLoop=1;jettySize=auto;html=1;entryX=0.5;entryY=0;entryDx=0;entryDy=0;entryPerimeter=0;" edge="1" parent="1" source="tL8ljKS5sOrN-HYQxTDB-2" target="2fkLR0gqcW9nhAtpeb0_-1">
          <mxGeometry relative="1" as="geometry">
            <Array as="points">
              <mxPoint x="-25" y="350" />
              <mxPoint x="220" y="350" />
            </Array>
          </mxGeometry>
        </mxCell>
        <mxCell id="tL8ljKS5sOrN-HYQxTDB-26" style="edgeStyle=orthogonalEdgeStyle;rounded=0;orthogonalLoop=1;jettySize=auto;html=1;entryX=0.5;entryY=0;entryDx=0;entryDy=0;entryPerimeter=0;" edge="1" parent="1" source="tL8ljKS5sOrN-HYQxTDB-3" target="2fkLR0gqcW9nhAtpeb0_-1">
          <mxGeometry relative="1" as="geometry">
            <Array as="points">
              <mxPoint x="140" y="350" />
              <mxPoint x="220" y="350" />
            </Array>
          </mxGeometry>
        </mxCell>
        <mxCell id="tL8ljKS5sOrN-HYQxTDB-27" style="edgeStyle=orthogonalEdgeStyle;rounded=0;orthogonalLoop=1;jettySize=auto;html=1;entryX=1;entryY=0.5;entryDx=0;entryDy=0;entryPerimeter=0;" edge="1" parent="1" source="tL8ljKS5sOrN-HYQxTDB-6" target="2fkLR0gqcW9nhAtpeb0_-1">
          <mxGeometry relative="1" as="geometry" />
        </mxCell>
      </root>
    </mxGraphModel>
  </diagram>
</mxfile>
